<svg width="128" height="128" viewBox="0 0 128 128" fill="none" xmlns="http://www.w3.org/2000/svg">
  <rect width="128" height="128" rx="64" fill="#F3F4F6"/>
  <circle cx="64" cy="50" r="16" fill="#9CA3AF"/>
  <path d="M40 108V100C40 89.5 47.5 80.5 57 78.5C59.5 78 62 78 64 78C66 78 68.5 78 71 78.5C80.5 80.5 88 89.5 88 100V108" fill="#9CA3AF"/>
  <path d="M44 64C44 58.5 48.5 54 54 54H74C79.5 54 84 58.5 84 64V68C84 70.5 82 72.5 79.5 72.5H48.5C46 72.5 44 70.5 44 68V64Z" fill="#6B7280"/>
  <circle cx="52" cy="62" r="2" fill="#F3F4F6"/>
  <circle cx="76" cy="62" r="2" fill="#F3F4F6"/>
</svg>