<svg width="128" height="128" viewBox="0 0 128 128" fill="none" xmlns="http://www.w3.org/2000/svg">
  <rect width="128" height="128" rx="64" fill="#FDF2F8"/>
  <circle cx="64" cy="50" r="16" fill="#EC4899"/>
  <path d="M40 108V100C40 89.5 47.5 80.5 57 78.5C59.5 78 62 78 64 78C66 78 68.5 78 71 78.5C80.5 80.5 88 89.5 88 100V108" fill="#EC4899"/>
  <path d="M52 60C52 56 55 53 59 53C63 53 66 56 66 60C66 62 65 64 63 65C67 66 69 70 69 74H75C75 66 70 59 63 57C65 55 66 52 66 49C66 44 62 40 57 40C52 40 48 44 48 49C48 52 49 55 51 57C44 59 39 66 39 74H45C45 70 47 66 51 65C49 64 48 62 48 60C48 56 51 53 55 53C59 53 62 56 62 60" fill="#BE185D"/>
</svg>