<svg width="128" height="128" viewBox="0 0 128 128" fill="none" xmlns="http://www.w3.org/2000/svg">
  <rect width="128" height="128" rx="64" fill="#F8FAFC"/>
  <circle cx="64" cy="50" r="16" fill="#64748B"/>
  <path d="M40 108V100C40 89.5 47.5 80.5 57 78.5C59.5 78 62 78 64 78C66 78 68.5 78 71 78.5C80.5 80.5 88 89.5 88 100V108" fill="#64748B"/>
  <rect x="50" y="56" width="28" height="20" rx="2" fill="#475569"/>
  <path d="M64 48L58 56L70 56L64 48Z" fill="#334155"/>
  <rect x="54" y="60" width="20" height="2" fill="#F8FAFC"/>
  <rect x="54" y="64" width="16" height="2" fill="#F8FAFC"/>
  <rect x="54" y="68" width="18" height="2" fill="#F8FAFC"/>
</svg>